Coordinates
version=1
nRows=14
nColumns=63
inDegrees=yes

Units are S.I. units (second, meters, Newtons, ...)
If the header above contains a line with 'inDegrees', this indicates whether rotational values are in degrees (yes) or radians (no).

endheader
time	pelvis_tilt	pelvis_list	pelvis_rotation	pelvis_tx	pelvis_ty	pelvis_tz	hip_flexion_r	hip_adduction_r	hip_rotation_r	knee_angle_r	knee_angle_r_beta	ankle_angle_r	subtalar_angle_r	mtp_angle_r	hip_flexion_l	hip_adduction_l	hip_rotation_l	knee_angle_l	knee_angle_l_beta	ankle_angle_l	subtalar_angle_l	mtp_angle_l	L5_S1_Flex_Ext	L5_S1_Lat_Bending	L5_S1_axial_rotation	L4_L5_Flex_Ext	L4_L5_Lat_Bending	L4_L5_axial_rotation	L3_L4_Flex_Ext	L3_L4_Lat_Bending	L3_L4_axial_rotation	L2_L3_Flex_Ext	L2_L3_Lat_Bending	L2_L3_axial_rotation	L1_L2_Flex_Ext	L1_L2_Lat_Bending	L1_L2_axial_rotation	L1_T12_Flex_Ext	L1_T12_Lat_Bending	L1_T12_axial_rotation	Abs_r3	Abs_r2	Abs_r1	Abs_t1	Abs_t2	neck_flexion	neck_bending	neck_rotation	arm_flex_r	arm_add_r	arm_rot_r	elbow_flex_r	pro_sup_r	wrist_flex_r	wrist_dev_r	arm_flex_l	arm_add_l	arm_rot_l	elbow_flex_l	pro_sup_l	wrist_flex_l	wrist_dev_l
4.674419	-2.457854	-5.065804	91.432349	0.259111	0.887648	0.458514	1.349774	-5.341571	3.852026	17.692429	0.308791	37.730006	-3.429493	0.000000	-4.535874	5.850743	15.662883	4.223782	0.073719	30.693986	-11.944476	0.000000	0.112660	-0.125809	-0.429585	0.209221	-0.167326	-0.456434	0.185089	-0.305892	-0.456434	0.128759	-0.305892	-0.375886	0.104616	-0.256549	-0.349037	0.064374	-0.194878	-0.322188	0.804720	-1.423175	-2.389220	0.000000	0.000000	18.473276	4.108723	7.392276	15.587275	-14.548890	79.674802	48.455029	19.097896	2.611371	14.127714	-0.523890	-9.457005	38.319200	52.763493	87.741259	9.863407	2.661930
4.697674	-2.469522	-5.035895	91.364582	0.259296	0.887464	0.458487	1.338934	-5.351406	3.877259	17.740554	0.309631	37.756014	-3.426577	0.000000	-4.580865	5.871422	15.740457	4.261273	0.074373	30.677965	-12.153290	0.000000	0.105874	-0.131281	-0.397096	0.196619	-0.174604	-0.421915	0.173941	-0.319198	-0.421915	0.121004	-0.319198	-0.347459	0.098315	-0.267709	-0.322641	0.060497	-0.203355	-0.297822	0.756250	-1.485082	-2.208529	0.000000	0.000000	18.236976	4.084459	7.166565	15.448868	-14.578940	79.185078	48.509155	19.868340	2.649586	14.398357	-0.632554	-9.454520	38.163144	52.889702	87.593271	10.074016	2.932074
4.720930	-2.484765	-5.015182	91.305582	0.259461	0.887236	0.458461	1.335844	-5.370606	3.865982	17.797195	0.310620	37.781741	-3.400061	0.000000	-4.615961	5.896281	15.824717	4.316796	0.075342	30.659521	-12.357030	0.000000	0.099687	-0.137242	-0.370257	0.185130	-0.182532	-0.393398	0.163777	-0.333691	-0.393398	0.113933	-0.333691	-0.323975	0.092570	-0.279865	-0.300834	0.056961	-0.212588	-0.277693	0.712058	-1.552513	-2.059259	0.000000	0.000000	17.959549	4.016946	6.881486	15.378242	-14.611912	78.864897	48.577661	20.334565	2.688019	14.607237	-0.780286	-9.445927	37.937783	53.040278	87.462199	10.249392	3.211733
4.744186	-2.496504	-5.008282	91.243239	0.259630	0.886965	0.458448	1.353920	-5.377079	3.916447	17.870574	0.311900	37.784997	-3.474574	0.000000	-4.634737	5.922069	15.985881	4.385207	0.076536	30.612596	-12.680051	0.000000	0.094502	-0.142141	-0.349325	0.175500	-0.189047	-0.371158	0.155258	-0.345601	-0.371158	0.108007	-0.345601	-0.305659	0.087755	-0.289853	-0.283826	0.053999	-0.220176	-0.261994	0.675020	-1.607925	-1.942839	0.000000	0.000000	17.651685	3.918781	6.629447	15.372544	-14.651100	78.695901	48.676816	20.586059	2.691916	14.746988	-0.966183	-9.418801	37.604282	53.209194	87.334972	10.459146	3.526912
4.767442	-2.506974	-5.008603	91.226872	0.259719	0.886684	0.458460	1.376933	-5.394822	3.856502	17.955531	0.313383	37.803019	-3.470623	0.000000	-4.634620	5.939997	16.035006	4.470661	0.078028	30.624984	-12.785710	0.000000	0.088576	-0.146133	-0.340105	0.164495	-0.194356	-0.361361	0.145522	-0.355307	-0.361361	0.101234	-0.355307	-0.297592	0.082252	-0.297994	-0.276335	0.050612	-0.226359	-0.255078	0.632691	-1.653081	-1.891560	0.000000	0.000000	17.358506	3.794283	6.412609	15.375272	-14.692707	78.526976	48.784367	20.820268	2.708140	14.827656	-1.158148	-9.389525	37.238911	53.402443	87.194272	10.626657	3.884984
4.790698	-2.514243	-5.012488	91.218283	0.259785	0.886411	0.458480	1.403877	-5.404094	3.827337	18.042286	0.314897	37.806908	-3.523294	0.000000	-4.632372	5.954796	16.103759	4.542638	0.079284	30.636627	-12.906401	0.000000	0.081948	-0.148571	-0.336970	0.152186	-0.197600	-0.358030	0.134633	-0.361236	-0.358030	0.093659	-0.361236	-0.294848	0.076097	-0.302967	-0.273788	0.046825	-0.230137	-0.252727	0.585348	-1.680669	-1.874124	0.000000	0.000000	17.063936	3.657855	6.270665	15.398087	-14.736249	78.421836	48.913465	20.807328	2.666073	14.849648	-1.357885	-9.342710	36.811005	53.593943	87.056790	10.851470	4.256342
4.813953	-2.519038	-5.033847	91.237163	0.259793	0.886130	0.458503	1.441585	-5.423198	3.707639	18.120330	0.316259	37.831547	-3.474753	0.000000	-4.605731	5.960509	16.039303	4.612610	0.080505	30.708111	-12.801525	0.000000	0.076347	-0.149334	-0.343100	0.141784	-0.198614	-0.364543	0.125430	-0.363090	-0.364543	0.087257	-0.363090	-0.300212	0.070896	-0.304521	-0.278768	0.043625	-0.231318	-0.257325	0.545338	-1.689293	-1.908217	0.000000	0.000000	16.825401	3.497922	6.199616	15.422526	-14.784383	78.366435	49.042329	20.756680	2.640972	14.753083	-1.538660	-9.311803	36.433599	53.809269	86.921841	11.027191	4.659804
4.837209	-2.518873	-5.072180	91.274521	0.259750	0.885854	0.458523	1.489869	-5.439396	3.574661	18.183085	0.317355	37.854479	-3.414707	0.000000	-4.559365	5.961218	15.996646	4.674015	0.081577	30.780540	-12.707859	0.000000	0.072162	-0.147902	-0.356125	0.134012	-0.196709	-0.378383	0.118555	-0.359608	-0.378383	0.082474	-0.359608	-0.311609	0.067010	-0.301601	-0.289351	0.041233	-0.229100	-0.267094	0.515446	-1.673092	-1.980659	0.000000	0.000000	16.615455	3.306454	6.189459	15.422562	-14.832136	78.296321	49.163781	20.573318	2.628630	14.682833	-1.683114	-9.289223	36.129657	53.995201	86.822502	11.213276	4.926325
4.860465	-2.514672	-5.117990	91.322985	0.259671	0.885595	0.458527	1.539015	-5.446883	3.473276	18.225960	0.318103	37.871455	-3.389978	0.000000	-4.519842	5.965198	16.205442	4.695814	0.081957	30.770770	-12.942796	0.000000	0.068534	-0.144760	-0.373076	0.127274	-0.192531	-0.396393	0.112594	-0.351970	-0.396393	0.078327	-0.351970	-0.326441	0.063640	-0.295195	-0.303124	0.039160	-0.224233	-0.279807	0.489529	-1.637555	-2.074935	0.000000	0.000000	16.435616	3.080026	6.206477	15.378763	-14.881119	78.170542	49.298377	20.321237	2.535418	14.651683	-1.788758	-9.282925	35.911317	54.174139	86.762754	11.368887	5.102366
4.883721	-2.504004	-5.177834	91.412172	0.259550	0.885368	0.458548	1.586396	-5.444404	3.361525	18.233158	0.318229	37.890820	-3.365949	0.000000	-4.437274	5.947790	16.099985	4.749857	0.082901	30.879575	-12.694952	0.000000	0.066662	-0.140376	-0.400436	0.123798	-0.186701	-0.425463	0.109519	-0.341311	-0.425463	0.076188	-0.341311	-0.350381	0.061902	-0.286256	-0.325354	0.038091	-0.217443	-0.300327	0.476158	-1.587967	-2.227104	0.000000	0.000000	16.283472	2.821518	6.236281	15.271681	-14.904214	77.913131	49.396337	20.185268	2.478961	14.695616	-1.872884	-9.295750	35.755501	54.349350	86.764700	11.418826	5.135893
4.906977	-2.493825	-5.247567	91.511771	0.259426	0.885180	0.458585	1.636895	-5.439327	3.263524	18.212419	0.317867	37.915698	-3.338312	0.000000	-4.339129	5.930398	16.017653	4.794949	0.083688	30.976394	-12.464245	0.000000	0.066515	-0.135623	-0.434027	0.123525	-0.180379	-0.461154	0.109278	-0.329754	-0.461154	0.076020	-0.329754	-0.379774	0.061766	-0.276563	-0.352647	0.038007	-0.210080	-0.325520	0.475110	-1.534197	-2.413929	0.000000	0.000000	16.167931	2.542532	6.276576	15.122867	-14.902813	77.582081	49.471532	20.081018	2.388295	14.820179	-1.948447	-9.323163	35.632738	54.522035	86.820844	11.393201	5.072242
4.930233	-2.483380	-5.325306	91.633815	0.259303	0.885040	0.458631	1.680957	-5.427524	3.176814	18.155165	0.316867	37.941160	-3.323950	0.000000	-4.224975	5.907484	15.894837	4.836216	0.084408	31.084830	-12.151221	0.000000	0.068264	-0.130872	-0.476523	0.126773	-0.174060	-0.506305	0.112150	-0.318203	-0.506305	0.078019	-0.318203	-0.416957	0.063390	-0.266875	-0.387175	0.039006	-0.202721	-0.357392	0.487601	-1.480452	-2.650276	0.000000	0.000000	16.096495	2.270009	6.353317	14.953481	-14.868521	77.229048	49.509333	20.016500	2.277392	15.020519	-2.020959	-9.364922	35.533220	54.691557	86.926459	11.320205	4.963429
4.953488	-2.472580	-5.400111	91.767185	0.259199	0.884966	0.458703	1.711737	-5.418810	3.042394	18.066451	0.315319	37.981219	-3.233742	0.000000	-4.103282	5.875998	15.622862	4.878166	0.085140	31.245412	-11.613814	0.000000	0.069705	-0.126294	-0.521266	0.129449	-0.167971	-0.553845	0.114518	-0.307071	-0.553845	0.079666	-0.307071	-0.456108	0.064728	-0.257538	-0.423529	0.039829	-0.195629	-0.390950	0.497894	-1.428660	-2.899126	0.000000	0.000000	16.088728	2.026954	6.466000	14.762735	-14.815796	76.839181	49.516304	20.074563	2.161896	15.250872	-2.060121	-9.436097	35.550413	54.854943	87.070374	11.105091	4.801896
4.976744	-2.461911	-5.485737	91.891374	0.259161	0.884914	0.458804	1.753468	-5.398778	2.967912	17.962725	0.313509	38.010675	-3.203710	0.000000	-3.972280	5.845509	15.444567	4.896932	0.085468	31.367559	-11.223275	0.000000	0.073642	-0.122605	-0.566230	0.136761	-0.163064	-0.601619	0.120987	-0.298101	-0.601619	0.084166	-0.298101	-0.495451	0.068384	-0.250015	-0.460062	0.042079	-0.189915	-0.424672	0.526019	-1.386929	-3.149200	0.000000	0.000000	16.151539	1.868313	6.657806	14.560655	-14.737837	76.435885	49.501617	20.157605	2.023599	15.548812	-2.112796	-9.514379	35.548729	55.013851	87.246422	10.933387	4.643059
